<svg width="56" height="56" viewBox="0 0 56 56" fill="none" xmlns="http://www.w3.org/2000/svg">
<rect width="56" height="56" rx="16" fill="#222222"/>
<path d="M30 18V22C30 22.5304 30.2107 23.0391 30.5858 23.4142C30.9609 23.7893 31.4696 24 32 24H36M26 25H24M32 29H24M32 33H24M31 18H22C21.4696 18 20.9609 18.2107 20.5858 18.5858C20.2107 18.9609 20 19.4696 20 20V36C20 36.5304 20.2107 37.0391 20.5858 37.4142C20.9609 37.7893 21.4696 38 22 38H34C34.5304 38 35.0391 37.7893 35.4142 37.4142C35.7893 37.0391 36 36.5304 36 36V23L31 18Z" stroke="#F2F2F2" stroke-width="2" stroke-linecap="round" stroke-linejoin="round"/>
</svg>
